# xmcd
#
# Track frame offsets:
#	150
#	13614
#	25765
#	42917
#	60154
#	74649
#	89361
#	103239
#	121782
#	142211
#	156838
#	170474
#	182935
#	194197
#	206304
#	225581
#	245914
#	257164
#	273646
#	286797
#
# Disc length: 4046 seconds
#
# Revision: 1
# Processed by: cddbd v1.5.2PL0 Copyright (c) Steve Scherf et al.
# Submitted via: audiograbber 1.83.01
#
DISCID=2c0fcc14
DTITLE=Various Artist - Best of Austrian Country Music 3
DYEAR=2007
DGENRE=Country
TTITLE0=Tex Robinson - I Need Some Honky Tonks Tonight
TTITLE1=New West - It Don't Get More Western Than That
TTITLE2=The Pyromantics - Unique
TTITLE3=Western Cowboys - It's So Easy
TTITLE4=Route Sixty-Six - Lonely Lonely Night
TTITLE5=Nick Shannon - The Cowboy Rides Away
TTITLE6=Stonefield - Hey, Good Looking'
TTITLE7=Thorncreek Village Ramblers - I Believe In Love
TTITLE8=Waterloo - Indio
TTITLE9=The Rioters - Rebels Heart
TTITLE10=Green River Band - Whiskey, Girls And Honky Tonks
TTITLE11=Tex Robinson - Love Is A Fantasy
TTITLE12=Western Cowboys - Louisiana Saturday Night
TTITLE13=Thorncreek Village Ramblers - One Eyed Joe
TTITLE14=Route Sixty-Six - Alligator Sally
TTITLE15=The Pyromantics - Calamity Jane
TTITLE16=The Rioters - Right Out Of My Dreams
TTITLE17=Stonefield - Wabash Cannonball
TTITLE18=Green River Band - I Ride With My Gold Wing
TTITLE19=Western Cowboys - No Name City
EXTD=
EXTT0=
EXTT1=
EXTT2=
EXTT3=
EXTT4=
EXTT5=
EXTT6=
EXTT7=
EXTT8=
EXTT9=
EXTT10=
EXTT11=
EXTT12=
EXTT13=
EXTT14=
EXTT15=
EXTT16=
EXTT17=
EXTT18=
EXTT19=
PLAYORDER=
